<svg width="181" height="38" viewBox="0 0 181 38" fill="none" xmlns="http://www.w3.org/2000/svg">
<path fill-rule="evenodd" clip-rule="evenodd" d="M0 0H38V38H0V0Z" fill="#57C6FA"/>
<path fill-rule="evenodd" clip-rule="evenodd" d="M31.8713 13.6064L16.5883 29.1343L6.12939 18.5089L10.7915 13.7735L16.5883 19.6573L27.2092 8.86768L31.8713 13.6064Z" fill="white"/>
<path d="M54.6697 21.4196C58.4265 21.4196 59.139 22.6682 59.139 25.3955V25.7898C59.139 28.09 59.1714 29.8315 59.56 30.8173H63.5759C63.2521 29.7986 63.2521 27.9585 63.2521 26.4142V25.3627C63.2521 21.321 61.6004 20.0724 60.2401 19.6452C62.0538 18.988 63.7055 17.2794 63.7055 14.2892C63.7055 10.7404 61.147 8.07886 56.3538 8.07886H46.8645V30.8173H51.01V21.4196H54.6697ZM51.01 11.5291H55.5117C58.135 11.5291 59.4305 12.6791 59.4305 14.7164C59.4305 16.8522 58.2646 17.9694 55.3498 17.9694H51.01V11.5291Z" fill="#151D89"/>
<path d="M80.9308 23.2268C80.9956 22.734 80.9956 22.3397 80.9956 21.781C80.9956 17.7723 79.1172 13.5334 73.5143 13.5334C68.2677 13.5334 65.6444 17.3779 65.6444 22.6025C65.6444 27.0056 67.9438 31.2116 73.32 31.2116C78.3399 31.2116 80.1535 27.9914 80.7689 25.8884H76.7206C76.2672 26.9728 75.587 27.9585 73.4495 27.9585C70.9558 27.9585 69.6927 25.757 69.6927 23.2268H80.9308ZM69.7899 20.631C70.0166 18.2323 71.0205 16.5236 73.4819 16.5236C75.9433 16.5236 76.9149 18.3637 76.9473 20.631H69.7899Z" fill="#151D89"/>
<path d="M81.8467 13.9278L87.5468 30.8173H91.8218L97.7809 13.9278H93.765C91.9513 19.6124 90.2996 24.6726 89.8462 27.1699H89.8138C89.4252 25.0998 88.0002 20.0395 86.1865 13.9278H81.8467Z" fill="#151D89"/>
<path d="M99.5391 30.8173H103.555V13.9278H99.5391V30.8173ZM103.555 10.7733V6.79736H99.5391V10.7733H103.555Z" fill="#151D89"/>
<path d="M121.473 23.2268C121.538 22.734 121.538 22.3397 121.538 21.781C121.538 17.7723 119.66 13.5334 114.057 13.5334C108.81 13.5334 106.187 17.3779 106.187 22.6025C106.187 27.0056 108.486 31.2116 113.863 31.2116C118.882 31.2116 120.696 27.9914 121.311 25.8884H117.263C116.81 26.9728 116.13 27.9585 113.992 27.9585C111.498 27.9585 110.235 25.757 110.235 23.2268H121.473ZM110.332 20.631C110.559 18.2323 111.563 16.5236 114.025 16.5236C116.486 16.5236 117.457 18.3637 117.49 20.631H110.332Z" fill="#151D89"/>
<path d="M122.462 13.9278L127.223 30.8173H131.562C133.182 24.5412 134.283 20.2695 134.574 18.2323H134.607C134.963 20.3353 136.032 24.5083 137.489 30.8173H141.796L146.816 13.9278H142.8C140.631 22.6354 140.08 25.1655 139.691 26.9399H139.659C139.432 25.1984 138.785 22.6682 136.679 13.9278H132.89C130.72 22.2082 130.008 25.3627 129.684 27.1371H129.652C129.328 25.1655 128.388 21.091 126.704 13.9278H122.462Z" fill="#151D89"/>
<path d="M162.776 23.2268C162.841 22.734 162.841 22.3397 162.841 21.781C162.841 17.7723 160.963 13.5334 155.36 13.5334C150.113 13.5334 147.49 17.3779 147.49 22.6025C147.49 27.0056 149.789 31.2116 155.166 31.2116C160.185 31.2116 161.999 27.9914 162.614 25.8884H158.566C158.113 26.9728 157.433 27.9585 155.295 27.9585C152.801 27.9585 151.538 25.757 151.538 23.2268H162.776ZM151.635 20.631C151.862 18.2323 152.866 16.5236 155.327 16.5236C157.789 16.5236 158.76 18.3637 158.793 20.631H151.635Z" fill="#151D89"/>
<path d="M176.452 6.79736V15.3407C176.031 14.5192 174.735 13.5334 172.177 13.5334C167.481 13.5334 164.631 17.3122 164.631 22.5368C164.631 27.7614 167.319 31.2116 171.529 31.2116C174.12 31.2116 175.642 30.3244 176.452 28.8457C176.452 29.3057 176.549 30.3244 176.614 30.8173H180.5C180.468 29.24 180.468 27.6957 180.468 26.1184V6.79736H176.452ZM168.776 22.4054C168.776 18.9223 170.201 16.8522 172.792 16.8522C176.063 16.8522 176.581 19.0866 176.581 22.2739C176.581 25.1327 176.063 27.8928 172.663 27.8928C170.266 27.8928 168.776 25.9541 168.776 22.4054Z" fill="#151D89"/>
</svg>
